#!OML:ASF X:\für Bonn\!DataBase\2005_08_10_Bjorn_Final\c3d\bjorn.ASF
:FULLY-SPECIFIED
:DEGREES
46
root 0.723187 15.3769 2.73042 -175.962 -3.80754 180.15
lowerback 15.4455 0.879437 3.39638
upperback 9.88836 -0.0651936 -0.166513
thorax 1.87829 -0.552335 -2.09979
lowerneck -14.1329 -8.68058 -0.743085
upperneck -4.07862 -12.1375 5.21588
head 1.45408 -6.2296 1.07652
rclavicle -2.18663e-015 9.93923e-017
rhumerus 83.9778 -3.87368 -71.735
rradius 10.1159
rwrist 49.3554
rhand -14.0796 10.8961
rfingers 7.12502
rthumb 12.0523 -18.7369
lclavicle -2.18663e-015 9.93923e-017
lhumerus 84.8335 -3.90481 45.5788
lradius 15.3138
lwrist -33.1301
lhand -19.148 -6.85466
lfingers 7.12502
lthumb 7.16225 23.0041
rfemur -51.0967 -10.4526 17.9974
rtibia 91.009
rfoot -33.8537 10.5256
rtoes -29.5132
lfemur -50.1212 8.20633 -16.32
ltibia 95.3733
lfoot -25.8764 -8.09835
ltoes -29.9224
47
root 0.720968 15.1391 2.76157 -176.308 -3.91751 179.995
lowerback 16.1113 0.88755 3.25704
upperback 10.0786 -0.135499 -0.17657
thorax 1.73053 -0.627915 -2.02212
lowerneck -14.1708 -8.67047 -0.747532
upperneck -4.27457 -12.1394 5.30044
head 1.40193 -6.24212 1.10697
rclavicle -1.31198e-014 1.49089e-015
rhumerus 84.0236 -4.04261 -71.5063
rradius 10.2117
rwrist 48.9499
rhand -14.4029 11.0723
rfingers 7.12502
rthumb 11.7406 -18.5787
lclavicle -1.31198e-014 1.49089e-015
lhumerus 84.8614 -3.74363 45.3652
lradius 15.3177
lwrist -33.4405
lhand -19.2643 -6.93394
lfingers 7.12502
lthumb 7.05001 22.9286
rfemur -52.3446 -10.8178 17.5717
rtibia 93.6219
rfoot -34.0192 11.1993
rtoes -30.0794
lfemur -51.3082 8.31343 -16.3272
ltibia 97.8881
lfoot -26.0566 -8.5483
ltoes -30.7846
48
root 0.719043 14.8961 2.79127 -176.661 -4.01866 179.841
lowerback 16.7533 0.905526 3.11533
upperback 10.2782 -0.199557 -0.176607
thorax 1.6083 -0.70169 -1.93261
lowerneck -14.2125 -8.67229 -0.819321
upperneck -4.48874 -12.1491 5.43025
head 1.35266 -6.25832 1.16183
rclavicle -4.77083e-015 -3.97569e-015
rhumerus 84.0703 -4.19546 -71.053
rradius 10.2645
rwrist 48.2421
rhand -14.7854 11.223
rfingers 7.12502
rthumb 11.3717 -18.4487
lclavicle -4.77083e-015 -3.97569e-015
lhumerus 84.86 -3.59304 45.1599
lradius 15.3335
lwrist -33.8174
lhand -19.5137 -6.91316
lfingers 7.12502
lthumb 6.80932 22.9573
rfemur -53.5895 -11.2526 17.1542
rtibia 96.2276
rfoot -34.2481 11.7231
rtoes -30.9629
lfemur -52.4444 8.43798 -16.2968
ltibia 100.362
lfoot -26.2546 -9.24829
ltoes -31.0408
49
root 0.717348 14.6493 2.82002 -176.962 -4.12817 179.722
lowerback 17.295 0.916776 3.00259
upperback 10.4855 -0.272066 -0.171759
thorax 1.54863 -0.776801 -1.85283
lowerneck -14.2806 -8.6464 -0.833959
upperneck -4.72838 -12.1343 5.53483
head 1.29298 -6.26591 1.201
rclavicle -8.15017e-015 2.98177e-015
rhumerus 84.1439 -4.34333 -70.4139
rradius 10.2695
rwrist 47.3676
rhand -15.2959 11.3752
rfingers 7.12502
rthumb 10.8794 -18.323
lclavicle -8.15017e-015 2.98177e-015
lhumerus 84.9123 -3.4046 44.8295
lradius 15.2695
lwrist -34.1351
lhand -19.8341 -6.88703
lfingers 7.12502
lthumb 6.49999 22.9932
rfemur -54.9113 -11.7357 16.8023
rtibia 98.8185
rfoot -34.5383 12.0771
rtoes -32.0982
lfemur -53.6517 8.62763 -16.2359
ltibia 102.82
lfoot -26.5435 -9.78263
ltoes -31.8581
50
root 0.715926 14.4012 2.84627 -177.262 -4.21867 179.623
lowerback 17.8206 0.939439 2.91623
upperback 10.6738 -0.323077 -0.16742
thorax 1.48043 -0.838683 -1.79081
lowerneck -14.3495 -8.64535 -0.885709
upperneck -4.91671 -12.1437 5.6706
head 1.25612 -6.28117 1.25265
rclavicle -1.87852e-014 1.78906e-015
rhumerus 84.1829 -4.50766 -69.91
rradius 10.2412
rwrist 46.7964
rhand -15.9134 11.5035
rfingers 7.12502
rthumb 10.2837 -18.2251
lclavicle -1.87852e-014 1.78906e-015
lhumerus 84.9913 -3.23836 44.2621
lradius 15.1703
lwrist -34.2532
lhand -20.1457 -6.88289
lfingers 7.12502
lthumb 6.19911 23.0064
rfemur -56.2158 -12.2458 16.4615
rtibia 101.363
rfoot -34.8272 12.4931
rtoes -33.1983
lfemur -54.8281 8.88905 -16.1563
ltibia 105.232
lfoot -26.9255 -10.262
ltoes -32.7582
51
root 0.714584 14.1482 2.87202 -177.605 -4.33527 179.559
lowerback 18.3401 0.958046 2.86983
upperback 10.9065 -0.389168 -0.146584
thorax 1.46573 -0.911217 -1.7318
lowerneck -14.5049 -8.63671 -0.926058
upperneck -5.09256 -12.1499 5.79306
head 1.23606 -6.29582 1.29428
rclavicle 1.81888e-014 -9.93923e-016
rhumerus 84.253 -4.71077 -69.6348
rradius 10.2971
rwrist 46.5801
rhand -16.3395 11.6871
rfingers 7.12502
rthumb 9.87266 -18.0614
lclavicle 1.81888e-014 -9.93923e-016
lhumerus 85.0517 -3.03955 43.8456
lradius 15.1366
lwrist -34.4606
lhand -20.1973 -6.9625
lfingers 7.12502
lthumb 6.14938 22.9283
rfemur -57.4593 -12.8202 16.1384
rtibia 103.883
rfoot -35.0946 13.0581
rtoes -33.8526
lfemur -55.9496 9.20628 -16.0486
ltibia 107.621
lfoot -27.4001 -10.5492
ltoes -33.9068
52
root 0.713357 13.8956 2.89687 -178.038 -4.44275 179.515
lowerback 18.9797 0.971051 2.88687
upperback 11.1156 -0.452747 -0.163081
thorax 1.3679 -0.980995 -1.74606
lowerneck -14.5329 -8.61982 -0.908456
upperneck -5.29693 -12.1475 5.93081
head 1.18214 -6.30735 1.33883
rclavicle -5.96354e-016 3.18055e-015
rhumerus 84.2375 -4.90867 -69.2774
rradius 10.3856
rwrist 46.073
rhand -16.583 11.8985
rfingers 7.12502
rthumb 9.63766 -17.861
lclavicle -5.96354e-016 3.18055e-015
lhumerus 85.0214 -2.9429 43.7892
lradius 15.1801
lwrist -35.0779
lhand -20.0999 -7.14661
lfingers 7.12502
lthumb 6.24336 22.7414
rfemur -58.5738 -13.4626 15.8093
rtibia 106.339
rfoot -35.3711 13.676
rtoes -34.4113
lfemur -56.9347 9.57772 -15.8917
ltibia 109.943
lfoot -27.8799 -10.902
ltoes -34.916
53
root 0.711033 13.6427 2.92048 -178.52 -4.55412 179.493
lowerback 19.6414 0.983011 2.90961
upperback 11.3549 -0.529937 -0.140485
thorax 1.2947 -1.0635 -1.71929
lowerneck -14.628 -8.60297 -0.955073
upperneck -5.44716 -12.1362 6.05888
head 1.16085 -6.31093 1.38652
rclavicle -1.40143e-014 4.37326e-015
rhumerus 84.2017 -5.05096 -68.6209
rradius 10.552
rwrist 45.0745
rhand -16.6878 12.0656
rfingers 7.12502
rthumb 9.53659 -17.6986
lclavicle -1.40143e-014 4.37326e-015
lhumerus 84.8927 -2.83517 44.1452
lradius 15.3103
lwrist -36.031
lhand -20.0078 -7.2591
lfingers 7.12502
lthumb 6.33228 22.6263
rfemur -59.5865 -14.1834 15.4738
rtibia 108.728
rfoot -35.7139 14.308
rtoes -35.0423
lfemur -57.8163 9.98985 -15.6979
ltibia 112.211
lfoot -28.3132 -11.4063
ltoes -35.3598
54
root 0.708893 13.3902 2.94331 -179.034 -4.65541 179.487
lowerback 20.3478 0.990056 2.9508
upperback 11.5844 -0.61231 -0.118376
thorax 1.19162 -1.14966 -1.70053
lowerneck -14.6883 -8.58033 -1.00013
upperneck -5.62506 -12.1174 6.1831
head 1.1239 -6.31268 1.43576
rclavicle 1.50082e-014 -1.23246e-014
rhumerus 84.1764 -5.15975 -68.0885
rradius 10.6983
rwrist 44.061
rhand -16.7348 12.3188
rfingers 7.12502
rthumb 9.49127 -17.4474
lclavicle 1.50082e-014 -1.23246e-014
lhumerus 84.6857 -2.75051 44.5962
lradius 15.5007
lwrist -36.9205
lhand -19.9351 -7.40155
lfingers 7.12502
lthumb 6.40243 22.4817
rfemur -60.5486 -14.952 15.1264
rtibia 111.067
rfoot -36.0919 14.9896
rtoes -35.5102
lfemur -58.6312 10.4667 -15.4629
ltibia 114.421
lfoot -28.6332 -12.1191
ltoes -35.2387
55
root 0.706248 13.1373 2.96539 -179.532 -4.76082 179.519
lowerback 21.0216 0.997514 3.07319
upperback 11.8204 -0.682931 -0.111847
thorax 1.11741 -1.2256 -1.74598
lowerneck -14.8135 -8.56544 -0.998653
upperneck -5.73996 -12.1157 6.29657
head 1.11519 -6.32024 1.46844
rclavicle 8.24956e-015 -4.47266e-015
rhumerus 84.0972 -5.31766 -67.4758
rradius 10.8821
rwrist 42.9108
rhand -16.7906 12.5064
rfingers 7.12502
rthumb 9.43743 -17.2623
lclavicle 8.24956e-015 -4.47266e-015
lhumerus 84.5835 -2.69969 44.7045
lradius 15.6261
lwrist -37.2738
lhand -20.0137 -7.43935
lfingers 7.12502
lthumb 6.32663 22.4462
rfemur -61.492 -15.8071 14.8092
rtibia 113.35
rfoot -36.4913 15.7144
rtoes -35.8918
lfemur -59.4709 11.0391 -15.1845
ltibia 116.609
lfoot -28.9791 -12.8044
ltoes -35.1778
56
root 0.702372 12.8854 2.98453 -180.019 -4.82277 179.53
lowerback 21.6836 1.00802 3.16414
upperback 12.0356 -0.75048 -0.113177
thorax 1.02876 -1.30021 -1.78132
lowerneck -14.9133 -8.52989 -0.985338
upperneck -5.86245 -12.0877 6.39833
head 1.09718 -6.31556 1.49876
rclavicle -4.67144e-015 3.47873e-015
rhumerus 83.9885 -5.41986 -66.7977
rradius 11.0725
rwrist 41.6257
rhand -16.7972 12.7046
rfingers 7.12502
rthumb 9.43102 -17.0644
lclavicle -4.67144e-015 3.47873e-015
lhumerus 84.4385 -2.64459 44.6435
lradius 15.7449
lwrist -37.2667
lhand -20.0399 -7.49193
lfingers 7.12502
lthumb 6.30131 22.3943
rfemur -62.4327 -16.7346 14.4483
rtibia 115.576
rfoot -36.8747 16.484
rtoes -36.2673
lfemur -60.2737 11.7105 -14.9203
ltibia 118.746
lfoot -29.2815 -13.5653
ltoes -34.9853
57
root 0.697537 12.6315 3.0015 -180.471 -4.85589 179.52
lowerback 22.2957 1.03797 3.22281
upperback 12.2525 -0.799334 -0.100992
thorax 0.970186 -1.36704 -1.78782
lowerneck -15.116 -8.50568 -0.991579
upperneck -5.90016 -12.0727 6.45804
head 1.12292 -6.31278 1.51121
rclavicle -1.59028e-015 -3.08116e-015
rhumerus 83.8872 -5.51477 -66.1422
rradius 11.2766
rwrist 40.3947
rhand -16.828 12.8798
rfingers 7.12502
rthumb 9.40133 -16.8905
lclavicle -1.59028e-015 -3.08116e-015
lhumerus 84.302 -2.59374 44.7966
lradius 15.8491
lwrist -37.3168
lhand -20.0333 -7.54906
lfingers 7.12502
lthumb 6.30765 22.337
rfemur -63.3752 -17.7572 14.0363
rtibia 117.752
rfoot -37.2084 17.4006
rtoes -36.5378
lfemur -61.0969 12.5173 -14.6846
ltibia 120.867
lfoot -29.5523 -14.3467
ltoes -34.6049
